<mxfile host="app.diagrams.net" agent="Mozilla/5.0 (Windows NT 10.0; Win64; x64) AppleWebKit/537.36 (KHTML, like Gecko) Chrome/131.0.0.0 Safari/537.36" version="25.0.1">
  <diagram id="WNxnk0LURHfRbP0s7R7I" name="Page-1">
    <mxGraphModel dx="1687" dy="878" grid="1" gridSize="10" guides="1" tooltips="1" connect="1" arrows="1" fold="1" page="1" pageScale="1" pageWidth="850" pageHeight="1100" math="0" shadow="0">
      <root>
        <mxCell id="0" />
        <mxCell id="1" parent="0" />
        <mxCell id="juTCT_LNaGas9HXw3iLE-25" value="" style="rounded=0;whiteSpace=wrap;html=1;" vertex="1" parent="1">
          <mxGeometry x="2890" y="760" width="190" height="205" as="geometry" />
        </mxCell>
        <mxCell id="GmcOGzXTu3tJZgcI8re--47" value="" style="rounded=0;whiteSpace=wrap;html=1;dashed=1;" parent="1" vertex="1">
          <mxGeometry x="130" y="905" width="520" height="615" as="geometry" />
        </mxCell>
        <mxCell id="GmcOGzXTu3tJZgcI8re--1" value="grayscale_i" style="text;html=1;align=center;verticalAlign=middle;whiteSpace=wrap;rounded=0;" parent="1" vertex="1">
          <mxGeometry x="40" y="920" width="60" height="30" as="geometry" />
        </mxCell>
        <mxCell id="GmcOGzXTu3tJZgcI8re--2" value="Line_buffer" style="rounded=0;whiteSpace=wrap;html=1;" parent="1" vertex="1">
          <mxGeometry x="240" y="1000" width="160" height="40" as="geometry" />
        </mxCell>
        <mxCell id="GmcOGzXTu3tJZgcI8re--3" value="Line_buffer" style="rounded=0;whiteSpace=wrap;html=1;" parent="1" vertex="1">
          <mxGeometry x="240" y="1060" width="160" height="40" as="geometry" />
        </mxCell>
        <mxCell id="GmcOGzXTu3tJZgcI8re--4" value="Line_buffer" style="rounded=0;whiteSpace=wrap;html=1;" parent="1" vertex="1">
          <mxGeometry x="240" y="1120" width="160" height="40" as="geometry" />
        </mxCell>
        <mxCell id="GmcOGzXTu3tJZgcI8re--5" value="Line_buffer" style="rounded=0;whiteSpace=wrap;html=1;" parent="1" vertex="1">
          <mxGeometry x="240" y="1180" width="160" height="40" as="geometry" />
        </mxCell>
        <mxCell id="GmcOGzXTu3tJZgcI8re--6" value="Line_buffer" style="rounded=0;whiteSpace=wrap;html=1;" parent="1" vertex="1">
          <mxGeometry x="240" y="1240" width="160" height="40" as="geometry" />
        </mxCell>
        <mxCell id="GmcOGzXTu3tJZgcI8re--7" value="Line_buffer" style="rounded=0;whiteSpace=wrap;html=1;" parent="1" vertex="1">
          <mxGeometry x="240" y="1300" width="160" height="40" as="geometry" />
        </mxCell>
        <mxCell id="GmcOGzXTu3tJZgcI8re--8" value="Line_buffer" style="rounded=0;whiteSpace=wrap;html=1;" parent="1" vertex="1">
          <mxGeometry x="240" y="1360" width="160" height="40" as="geometry" />
        </mxCell>
        <mxCell id="GmcOGzXTu3tJZgcI8re--9" value="Line_buffer" style="rounded=0;whiteSpace=wrap;html=1;" parent="1" vertex="1">
          <mxGeometry x="240" y="1420" width="160" height="40" as="geometry" />
        </mxCell>
        <mxCell id="GmcOGzXTu3tJZgcI8re--10" value="" style="endArrow=classic;html=1;rounded=0;entryX=0;entryY=0.5;entryDx=0;entryDy=0;" parent="1" target="GmcOGzXTu3tJZgcI8re--2" edge="1">
          <mxGeometry width="50" height="50" relative="1" as="geometry">
            <mxPoint x="160" y="960" as="sourcePoint" />
            <mxPoint x="220" y="990" as="targetPoint" />
            <Array as="points">
              <mxPoint x="160" y="1020" />
            </Array>
          </mxGeometry>
        </mxCell>
        <mxCell id="GmcOGzXTu3tJZgcI8re--11" value="" style="endArrow=classic;html=1;rounded=0;exitX=1;exitY=0.5;exitDx=0;exitDy=0;entryX=0;entryY=0.5;entryDx=0;entryDy=0;" parent="1" source="GmcOGzXTu3tJZgcI8re--2" target="GmcOGzXTu3tJZgcI8re--3" edge="1">
          <mxGeometry width="50" height="50" relative="1" as="geometry">
            <mxPoint x="400" y="1060" as="sourcePoint" />
            <mxPoint x="450" y="1010" as="targetPoint" />
            <Array as="points">
              <mxPoint x="440" y="1020" />
              <mxPoint x="440" y="1050" />
              <mxPoint x="200" y="1050" />
              <mxPoint x="200" y="1080" />
            </Array>
          </mxGeometry>
        </mxCell>
        <mxCell id="GmcOGzXTu3tJZgcI8re--12" value="" style="endArrow=classic;html=1;rounded=0;exitX=1;exitY=0.5;exitDx=0;exitDy=0;entryX=0;entryY=0.5;entryDx=0;entryDy=0;" parent="1" source="GmcOGzXTu3tJZgcI8re--3" target="GmcOGzXTu3tJZgcI8re--4" edge="1">
          <mxGeometry width="50" height="50" relative="1" as="geometry">
            <mxPoint x="400" y="1130" as="sourcePoint" />
            <mxPoint x="450" y="1080" as="targetPoint" />
            <Array as="points">
              <mxPoint x="440" y="1080" />
              <mxPoint x="440" y="1110" />
              <mxPoint x="200" y="1110" />
              <mxPoint x="200" y="1140" />
            </Array>
          </mxGeometry>
        </mxCell>
        <mxCell id="GmcOGzXTu3tJZgcI8re--13" value="" style="endArrow=classic;html=1;rounded=0;exitX=1;exitY=0.5;exitDx=0;exitDy=0;entryX=0;entryY=0.5;entryDx=0;entryDy=0;" parent="1" edge="1">
          <mxGeometry width="50" height="50" relative="1" as="geometry">
            <mxPoint x="400" y="1140" as="sourcePoint" />
            <mxPoint x="240" y="1200" as="targetPoint" />
            <Array as="points">
              <mxPoint x="440" y="1140" />
              <mxPoint x="440" y="1170" />
              <mxPoint x="200" y="1170" />
              <mxPoint x="200" y="1200" />
            </Array>
          </mxGeometry>
        </mxCell>
        <mxCell id="GmcOGzXTu3tJZgcI8re--14" value="" style="endArrow=classic;html=1;rounded=0;exitX=1;exitY=0.5;exitDx=0;exitDy=0;entryX=0;entryY=0.5;entryDx=0;entryDy=0;" parent="1" edge="1">
          <mxGeometry width="50" height="50" relative="1" as="geometry">
            <mxPoint x="400" y="1200" as="sourcePoint" />
            <mxPoint x="240" y="1260" as="targetPoint" />
            <Array as="points">
              <mxPoint x="440" y="1200" />
              <mxPoint x="440" y="1230" />
              <mxPoint x="200" y="1230" />
              <mxPoint x="200" y="1260" />
            </Array>
          </mxGeometry>
        </mxCell>
        <mxCell id="GmcOGzXTu3tJZgcI8re--15" value="" style="endArrow=classic;html=1;rounded=0;exitX=1;exitY=0.5;exitDx=0;exitDy=0;entryX=0;entryY=0.5;entryDx=0;entryDy=0;" parent="1" edge="1">
          <mxGeometry width="50" height="50" relative="1" as="geometry">
            <mxPoint x="400" y="1260" as="sourcePoint" />
            <mxPoint x="240" y="1320" as="targetPoint" />
            <Array as="points">
              <mxPoint x="440" y="1260" />
              <mxPoint x="440" y="1290" />
              <mxPoint x="200" y="1290" />
              <mxPoint x="200" y="1320" />
            </Array>
          </mxGeometry>
        </mxCell>
        <mxCell id="GmcOGzXTu3tJZgcI8re--16" value="" style="endArrow=classic;html=1;rounded=0;exitX=1;exitY=0.5;exitDx=0;exitDy=0;entryX=0;entryY=0.5;entryDx=0;entryDy=0;" parent="1" edge="1">
          <mxGeometry width="50" height="50" relative="1" as="geometry">
            <mxPoint x="400" y="1320" as="sourcePoint" />
            <mxPoint x="240" y="1380" as="targetPoint" />
            <Array as="points">
              <mxPoint x="440" y="1320" />
              <mxPoint x="440" y="1350" />
              <mxPoint x="200" y="1350" />
              <mxPoint x="200" y="1380" />
            </Array>
          </mxGeometry>
        </mxCell>
        <mxCell id="GmcOGzXTu3tJZgcI8re--17" value="" style="endArrow=classic;html=1;rounded=0;exitX=1;exitY=0.5;exitDx=0;exitDy=0;entryX=0;entryY=0.5;entryDx=0;entryDy=0;" parent="1" edge="1">
          <mxGeometry width="50" height="50" relative="1" as="geometry">
            <mxPoint x="400" y="1380" as="sourcePoint" />
            <mxPoint x="240" y="1440" as="targetPoint" />
            <Array as="points">
              <mxPoint x="440" y="1380" />
              <mxPoint x="440" y="1410" />
              <mxPoint x="200" y="1410" />
              <mxPoint x="200" y="1440" />
            </Array>
          </mxGeometry>
        </mxCell>
        <mxCell id="GmcOGzXTu3tJZgcI8re--18" value="Data_modulate_3x3" style="rounded=1;whiteSpace=wrap;html=1;" parent="1" vertex="1">
          <mxGeometry x="720" y="990" width="330" height="60" as="geometry" />
        </mxCell>
        <mxCell id="GmcOGzXTu3tJZgcI8re--19" value="Data_modulate_5x5" style="rounded=1;whiteSpace=wrap;html=1;fillColor=#fff2cc;strokeColor=#d6b656;" parent="1" vertex="1">
          <mxGeometry x="720" y="1170" width="330" height="60" as="geometry" />
        </mxCell>
        <mxCell id="GmcOGzXTu3tJZgcI8re--20" value="Data_modulate_7x7" style="rounded=1;whiteSpace=wrap;html=1;fillColor=#dae8fc;strokeColor=#6c8ebf;" parent="1" vertex="1">
          <mxGeometry x="720" y="1290" width="330" height="60" as="geometry" />
        </mxCell>
        <mxCell id="GmcOGzXTu3tJZgcI8re--21" value="Data_modulate_9x9" style="rounded=1;whiteSpace=wrap;html=1;fillColor=#d5e8d4;strokeColor=#82b366;" parent="1" vertex="1">
          <mxGeometry x="720" y="1410" width="330" height="60" as="geometry" />
        </mxCell>
        <mxCell id="GmcOGzXTu3tJZgcI8re--22" value="" style="endArrow=none;html=1;rounded=0;entryX=0;entryY=0.5;entryDx=0;entryDy=0;exitX=1;exitY=0.5;exitDx=0;exitDy=0;fillColor=#f8cecc;strokeColor=#39B85B;" parent="1" source="GmcOGzXTu3tJZgcI8re--9" target="GmcOGzXTu3tJZgcI8re--21" edge="1">
          <mxGeometry width="50" height="50" relative="1" as="geometry">
            <mxPoint x="520" y="1380" as="sourcePoint" />
            <mxPoint x="570" y="1330" as="targetPoint" />
          </mxGeometry>
        </mxCell>
        <mxCell id="GmcOGzXTu3tJZgcI8re--23" value="" style="endArrow=none;html=1;rounded=0;entryX=1;entryY=0.5;entryDx=0;entryDy=0;fillColor=#f8cecc;strokeColor=#39B85B;" parent="1" target="GmcOGzXTu3tJZgcI8re--8" edge="1">
          <mxGeometry width="50" height="50" relative="1" as="geometry">
            <mxPoint x="560" y="1440" as="sourcePoint" />
            <mxPoint x="610" y="1330" as="targetPoint" />
            <Array as="points">
              <mxPoint x="560" y="1380" />
            </Array>
          </mxGeometry>
        </mxCell>
        <mxCell id="GmcOGzXTu3tJZgcI8re--24" value="" style="endArrow=none;html=1;rounded=0;entryX=1;entryY=0.5;entryDx=0;entryDy=0;fillColor=#f8cecc;strokeColor=#39B85B;" parent="1" target="GmcOGzXTu3tJZgcI8re--7" edge="1">
          <mxGeometry width="50" height="50" relative="1" as="geometry">
            <mxPoint x="560" y="1440" as="sourcePoint" />
            <mxPoint x="400" y="1380" as="targetPoint" />
            <Array as="points">
              <mxPoint x="560" y="1320" />
            </Array>
          </mxGeometry>
        </mxCell>
        <mxCell id="GmcOGzXTu3tJZgcI8re--25" value="" style="endArrow=none;html=1;rounded=0;entryX=1;entryY=0.5;entryDx=0;entryDy=0;fillColor=#f8cecc;strokeColor=#39B85B;" parent="1" target="GmcOGzXTu3tJZgcI8re--6" edge="1">
          <mxGeometry width="50" height="50" relative="1" as="geometry">
            <mxPoint x="560" y="1440" as="sourcePoint" />
            <mxPoint x="400" y="1320" as="targetPoint" />
            <Array as="points">
              <mxPoint x="560" y="1260" />
            </Array>
          </mxGeometry>
        </mxCell>
        <mxCell id="GmcOGzXTu3tJZgcI8re--26" value="" style="endArrow=none;html=1;rounded=0;entryX=1;entryY=0.5;entryDx=0;entryDy=0;fillColor=#f8cecc;strokeColor=#39B85B;" parent="1" target="GmcOGzXTu3tJZgcI8re--5" edge="1">
          <mxGeometry width="50" height="50" relative="1" as="geometry">
            <mxPoint x="560" y="1440" as="sourcePoint" />
            <mxPoint x="400" y="1260" as="targetPoint" />
            <Array as="points">
              <mxPoint x="560" y="1200" />
            </Array>
          </mxGeometry>
        </mxCell>
        <mxCell id="GmcOGzXTu3tJZgcI8re--27" value="" style="endArrow=none;html=1;rounded=0;entryX=1;entryY=0.5;entryDx=0;entryDy=0;fillColor=#f8cecc;strokeColor=#39B85B;" parent="1" target="GmcOGzXTu3tJZgcI8re--4" edge="1">
          <mxGeometry width="50" height="50" relative="1" as="geometry">
            <mxPoint x="560" y="1440" as="sourcePoint" />
            <mxPoint x="400" y="1200" as="targetPoint" />
            <Array as="points">
              <mxPoint x="560" y="1140" />
            </Array>
          </mxGeometry>
        </mxCell>
        <mxCell id="GmcOGzXTu3tJZgcI8re--28" value="" style="endArrow=none;html=1;rounded=0;entryX=1;entryY=0.5;entryDx=0;entryDy=0;fillColor=#f8cecc;strokeColor=#39B85B;" parent="1" target="GmcOGzXTu3tJZgcI8re--3" edge="1">
          <mxGeometry width="50" height="50" relative="1" as="geometry">
            <mxPoint x="560" y="1440" as="sourcePoint" />
            <mxPoint x="400" y="1140" as="targetPoint" />
            <Array as="points">
              <mxPoint x="560" y="1080" />
            </Array>
          </mxGeometry>
        </mxCell>
        <mxCell id="GmcOGzXTu3tJZgcI8re--29" value="" style="endArrow=none;html=1;rounded=0;entryX=1;entryY=0.5;entryDx=0;entryDy=0;fillColor=#f8cecc;strokeColor=#39B85B;" parent="1" target="GmcOGzXTu3tJZgcI8re--2" edge="1">
          <mxGeometry width="50" height="50" relative="1" as="geometry">
            <mxPoint x="560" y="1440" as="sourcePoint" />
            <mxPoint x="400" y="1080" as="targetPoint" />
            <Array as="points">
              <mxPoint x="560" y="1020" />
            </Array>
          </mxGeometry>
        </mxCell>
        <mxCell id="GmcOGzXTu3tJZgcI8re--30" value="" style="endArrow=none;html=1;rounded=0;fillColor=#f8cecc;strokeColor=#39B85B;" parent="1" edge="1">
          <mxGeometry width="50" height="50" relative="1" as="geometry">
            <mxPoint x="560" y="1440" as="sourcePoint" />
            <mxPoint x="10" y="960" as="targetPoint" />
            <Array as="points">
              <mxPoint x="560" y="960" />
            </Array>
          </mxGeometry>
        </mxCell>
        <mxCell id="GmcOGzXTu3tJZgcI8re--31" value="" style="endArrow=none;html=1;rounded=0;exitX=1;exitY=0.5;exitDx=0;exitDy=0;entryX=0;entryY=0.5;entryDx=0;entryDy=0;strokeColor=#2EC0FF;" parent="1" source="GmcOGzXTu3tJZgcI8re--8" target="GmcOGzXTu3tJZgcI8re--20" edge="1">
          <mxGeometry width="50" height="50" relative="1" as="geometry">
            <mxPoint x="670" y="1360" as="sourcePoint" />
            <mxPoint x="720" y="1310" as="targetPoint" />
            <Array as="points">
              <mxPoint x="600" y="1380" />
              <mxPoint x="600" y="1320" />
            </Array>
          </mxGeometry>
        </mxCell>
        <mxCell id="GmcOGzXTu3tJZgcI8re--32" value="" style="endArrow=none;html=1;rounded=0;exitX=1;exitY=0.5;exitDx=0;exitDy=0;entryX=0;entryY=0.5;entryDx=0;entryDy=0;strokeColor=#2EC0FF;" parent="1" source="GmcOGzXTu3tJZgcI8re--7" target="GmcOGzXTu3tJZgcI8re--20" edge="1">
          <mxGeometry width="50" height="50" relative="1" as="geometry">
            <mxPoint x="590" y="1310" as="sourcePoint" />
            <mxPoint x="640" y="1260" as="targetPoint" />
          </mxGeometry>
        </mxCell>
        <mxCell id="GmcOGzXTu3tJZgcI8re--33" value="" style="endArrow=none;html=1;rounded=0;exitX=1;exitY=0.5;exitDx=0;exitDy=0;entryX=0;entryY=0.5;entryDx=0;entryDy=0;strokeColor=#2EC0FF;" parent="1" source="GmcOGzXTu3tJZgcI8re--6" target="GmcOGzXTu3tJZgcI8re--20" edge="1">
          <mxGeometry width="50" height="50" relative="1" as="geometry">
            <mxPoint x="620" y="1280" as="sourcePoint" />
            <mxPoint x="670" y="1230" as="targetPoint" />
            <Array as="points">
              <mxPoint x="600" y="1260" />
              <mxPoint x="600" y="1320" />
            </Array>
          </mxGeometry>
        </mxCell>
        <mxCell id="GmcOGzXTu3tJZgcI8re--34" value="" style="endArrow=none;html=1;rounded=0;exitX=1;exitY=0.5;exitDx=0;exitDy=0;entryX=0;entryY=0.5;entryDx=0;entryDy=0;strokeColor=#2EC0FF;" parent="1" source="GmcOGzXTu3tJZgcI8re--5" edge="1">
          <mxGeometry width="50" height="50" relative="1" as="geometry">
            <mxPoint x="400" y="1260" as="sourcePoint" />
            <mxPoint x="720" y="1320" as="targetPoint" />
            <Array as="points">
              <mxPoint x="600" y="1200" />
              <mxPoint x="600" y="1320" />
            </Array>
          </mxGeometry>
        </mxCell>
        <mxCell id="GmcOGzXTu3tJZgcI8re--35" value="" style="endArrow=none;html=1;rounded=0;exitX=1;exitY=0.5;exitDx=0;exitDy=0;entryX=0;entryY=0.5;entryDx=0;entryDy=0;strokeColor=#2EC0FF;" parent="1" source="GmcOGzXTu3tJZgcI8re--4" edge="1">
          <mxGeometry width="50" height="50" relative="1" as="geometry">
            <mxPoint x="400" y="1200" as="sourcePoint" />
            <mxPoint x="720" y="1320" as="targetPoint" />
            <Array as="points">
              <mxPoint x="600" y="1140" />
              <mxPoint x="600" y="1320" />
            </Array>
          </mxGeometry>
        </mxCell>
        <mxCell id="GmcOGzXTu3tJZgcI8re--36" value="" style="endArrow=none;html=1;rounded=0;entryX=0;entryY=0.5;entryDx=0;entryDy=0;exitX=1;exitY=0.5;exitDx=0;exitDy=0;strokeColor=#2EC0FF;" parent="1" source="GmcOGzXTu3tJZgcI8re--3" edge="1">
          <mxGeometry width="50" height="50" relative="1" as="geometry">
            <mxPoint x="410" y="1080" as="sourcePoint" />
            <mxPoint x="720" y="1320" as="targetPoint" />
            <Array as="points">
              <mxPoint x="600" y="1080" />
              <mxPoint x="600" y="1320" />
            </Array>
          </mxGeometry>
        </mxCell>
        <mxCell id="GmcOGzXTu3tJZgcI8re--37" value="" style="endArrow=none;html=1;rounded=0;entryX=0;entryY=0.5;entryDx=0;entryDy=0;exitX=1;exitY=0.5;exitDx=0;exitDy=0;strokeColor=#2EC0FF;" parent="1" source="GmcOGzXTu3tJZgcI8re--2" edge="1">
          <mxGeometry width="50" height="50" relative="1" as="geometry">
            <mxPoint x="400" y="1080" as="sourcePoint" />
            <mxPoint x="720" y="1320" as="targetPoint" />
            <Array as="points">
              <mxPoint x="600" y="1020" />
              <mxPoint x="600" y="1320" />
            </Array>
          </mxGeometry>
        </mxCell>
        <mxCell id="GmcOGzXTu3tJZgcI8re--38" value="" style="endArrow=none;html=1;rounded=0;entryX=0;entryY=0.5;entryDx=0;entryDy=0;exitX=1;exitY=0.5;exitDx=0;exitDy=0;strokeColor=#8825ad;" parent="1" source="GmcOGzXTu3tJZgcI8re--7" target="GmcOGzXTu3tJZgcI8re--19" edge="1">
          <mxGeometry width="50" height="50" relative="1" as="geometry">
            <mxPoint x="590" y="1270" as="sourcePoint" />
            <mxPoint x="640" y="1220" as="targetPoint" />
            <Array as="points">
              <mxPoint x="520" y="1320" />
              <mxPoint x="520" y="1200" />
            </Array>
          </mxGeometry>
        </mxCell>
        <mxCell id="GmcOGzXTu3tJZgcI8re--39" value="" style="endArrow=none;html=1;rounded=0;entryX=0;entryY=0.5;entryDx=0;entryDy=0;exitX=1;exitY=0.5;exitDx=0;exitDy=0;strokeColor=#8825ad;" parent="1" source="GmcOGzXTu3tJZgcI8re--5" target="GmcOGzXTu3tJZgcI8re--19" edge="1">
          <mxGeometry width="50" height="50" relative="1" as="geometry">
            <mxPoint x="620" y="1280" as="sourcePoint" />
            <mxPoint x="670" y="1230" as="targetPoint" />
          </mxGeometry>
        </mxCell>
        <mxCell id="GmcOGzXTu3tJZgcI8re--40" value="" style="endArrow=none;html=1;rounded=0;entryX=0;entryY=0.5;entryDx=0;entryDy=0;exitX=1;exitY=0.5;exitDx=0;exitDy=0;strokeColor=#8825ad;" parent="1" source="GmcOGzXTu3tJZgcI8re--6" target="GmcOGzXTu3tJZgcI8re--19" edge="1">
          <mxGeometry width="50" height="50" relative="1" as="geometry">
            <mxPoint x="480" y="1380" as="sourcePoint" />
            <mxPoint x="530" y="1330" as="targetPoint" />
            <Array as="points">
              <mxPoint x="520" y="1260" />
              <mxPoint x="520" y="1200" />
            </Array>
          </mxGeometry>
        </mxCell>
        <mxCell id="GmcOGzXTu3tJZgcI8re--41" value="" style="endArrow=none;html=1;rounded=0;exitX=1;exitY=0.5;exitDx=0;exitDy=0;entryX=0;entryY=0.5;entryDx=0;entryDy=0;strokeColor=#8825ad;" parent="1" source="GmcOGzXTu3tJZgcI8re--4" target="GmcOGzXTu3tJZgcI8re--19" edge="1">
          <mxGeometry width="50" height="50" relative="1" as="geometry">
            <mxPoint x="400" y="1140" as="sourcePoint" />
            <mxPoint x="570" y="1110" as="targetPoint" />
            <Array as="points">
              <mxPoint x="520" y="1140" />
              <mxPoint x="520" y="1200" />
            </Array>
          </mxGeometry>
        </mxCell>
        <mxCell id="GmcOGzXTu3tJZgcI8re--42" value="" style="endArrow=none;html=1;rounded=0;entryX=0;entryY=0.5;entryDx=0;entryDy=0;exitX=1;exitY=0.5;exitDx=0;exitDy=0;strokeColor=#8825ad;" parent="1" source="GmcOGzXTu3tJZgcI8re--3" target="GmcOGzXTu3tJZgcI8re--19" edge="1">
          <mxGeometry width="50" height="50" relative="1" as="geometry">
            <mxPoint x="510" y="1240" as="sourcePoint" />
            <mxPoint x="560" y="1190" as="targetPoint" />
            <Array as="points">
              <mxPoint x="520" y="1080" />
              <mxPoint x="520" y="1200" />
            </Array>
          </mxGeometry>
        </mxCell>
        <mxCell id="GmcOGzXTu3tJZgcI8re--43" value="" style="endArrow=none;html=1;rounded=0;entryX=0;entryY=0.5;entryDx=0;entryDy=0;exitX=1;exitY=0.5;exitDx=0;exitDy=0;fillColor=#f8cecc;strokeColor=#0000FF;" parent="1" source="GmcOGzXTu3tJZgcI8re--6" target="GmcOGzXTu3tJZgcI8re--18" edge="1">
          <mxGeometry width="50" height="50" relative="1" as="geometry">
            <mxPoint x="660" y="1090" as="sourcePoint" />
            <mxPoint x="710" y="1040" as="targetPoint" />
            <Array as="points">
              <mxPoint x="440" y="1260" />
              <mxPoint x="480" y="1260" />
              <mxPoint x="480" y="1020" />
            </Array>
          </mxGeometry>
        </mxCell>
        <mxCell id="GmcOGzXTu3tJZgcI8re--44" value="" style="endArrow=none;html=1;rounded=0;entryX=0;entryY=0.5;entryDx=0;entryDy=0;fillColor=#f8cecc;strokeColor=#0000FF;exitX=1;exitY=0.5;exitDx=0;exitDy=0;" parent="1" source="GmcOGzXTu3tJZgcI8re--5" target="GmcOGzXTu3tJZgcI8re--18" edge="1">
          <mxGeometry width="50" height="50" relative="1" as="geometry">
            <mxPoint x="470" y="1110" as="sourcePoint" />
            <mxPoint x="580" y="1090" as="targetPoint" />
            <Array as="points">
              <mxPoint x="480" y="1200" />
              <mxPoint x="480" y="1020" />
            </Array>
          </mxGeometry>
        </mxCell>
        <mxCell id="GmcOGzXTu3tJZgcI8re--45" value="" style="endArrow=none;html=1;rounded=0;entryX=0;entryY=0.5;entryDx=0;entryDy=0;exitX=1;exitY=0.5;exitDx=0;exitDy=0;fillColor=#f8cecc;strokeColor=#0000FF;" parent="1" source="GmcOGzXTu3tJZgcI8re--4" target="GmcOGzXTu3tJZgcI8re--18" edge="1">
          <mxGeometry width="50" height="50" relative="1" as="geometry">
            <mxPoint x="530" y="1140" as="sourcePoint" />
            <mxPoint x="580" y="1090" as="targetPoint" />
            <Array as="points">
              <mxPoint x="480" y="1140" />
              <mxPoint x="480" y="1020" />
            </Array>
          </mxGeometry>
        </mxCell>
        <mxCell id="GmcOGzXTu3tJZgcI8re--48" value="Preparation" style="text;html=1;align=center;verticalAlign=middle;whiteSpace=wrap;rounded=0;" parent="1" vertex="1">
          <mxGeometry x="340" y="870" width="60" height="30" as="geometry" />
        </mxCell>
        <mxCell id="GmcOGzXTu3tJZgcI8re--49" value="" style="endArrow=classic;html=1;rounded=0;exitX=1;exitY=0.5;exitDx=0;exitDy=0;" parent="1" source="GmcOGzXTu3tJZgcI8re--18" edge="1">
          <mxGeometry width="50" height="50" relative="1" as="geometry">
            <mxPoint x="1130" y="1060" as="sourcePoint" />
            <mxPoint x="1120" y="1020" as="targetPoint" />
          </mxGeometry>
        </mxCell>
        <mxCell id="GmcOGzXTu3tJZgcI8re--53" value="" style="endArrow=classic;html=1;rounded=0;exitX=1;exitY=0.5;exitDx=0;exitDy=0;" parent="1" edge="1">
          <mxGeometry width="50" height="50" relative="1" as="geometry">
            <mxPoint x="1050" y="1199.41" as="sourcePoint" />
            <mxPoint x="1120" y="1199.41" as="targetPoint" />
          </mxGeometry>
        </mxCell>
        <mxCell id="GmcOGzXTu3tJZgcI8re--54" value="" style="endArrow=classic;html=1;rounded=0;exitX=1;exitY=0.5;exitDx=0;exitDy=0;" parent="1" edge="1">
          <mxGeometry width="50" height="50" relative="1" as="geometry">
            <mxPoint x="1050" y="1319.41" as="sourcePoint" />
            <mxPoint x="1120" y="1319.41" as="targetPoint" />
          </mxGeometry>
        </mxCell>
        <mxCell id="GmcOGzXTu3tJZgcI8re--55" value="" style="endArrow=classic;html=1;rounded=0;exitX=1;exitY=0.5;exitDx=0;exitDy=0;" parent="1" edge="1">
          <mxGeometry width="50" height="50" relative="1" as="geometry">
            <mxPoint x="1050" y="1439.41" as="sourcePoint" />
            <mxPoint x="1120" y="1439.41" as="targetPoint" />
          </mxGeometry>
        </mxCell>
        <mxCell id="GmcOGzXTu3tJZgcI8re--56" value="Median_3x3_calc" style="rounded=1;whiteSpace=wrap;html=1;" parent="1" vertex="1">
          <mxGeometry x="1120" y="990" width="330" height="60" as="geometry" />
        </mxCell>
        <mxCell id="GmcOGzXTu3tJZgcI8re--57" value="Median_5x5_calc" style="rounded=1;whiteSpace=wrap;html=1;fillColor=#fff2cc;strokeColor=#d6b656;" parent="1" vertex="1">
          <mxGeometry x="1120" y="1170" width="330" height="60" as="geometry" />
        </mxCell>
        <mxCell id="GmcOGzXTu3tJZgcI8re--58" value="Median_7x7_calc" style="rounded=1;whiteSpace=wrap;html=1;fillColor=#dae8fc;strokeColor=#6c8ebf;" parent="1" vertex="1">
          <mxGeometry x="1120" y="1290" width="330" height="60" as="geometry" />
        </mxCell>
        <mxCell id="GmcOGzXTu3tJZgcI8re--59" value="Median_9x9_calc" style="rounded=1;whiteSpace=wrap;html=1;fillColor=#d5e8d4;strokeColor=#82b366;" parent="1" vertex="1">
          <mxGeometry x="1120" y="1410" width="330" height="60" as="geometry" />
        </mxCell>
        <mxCell id="GmcOGzXTu3tJZgcI8re--61" value="" style="endArrow=classic;html=1;rounded=0;exitX=1;exitY=0.5;exitDx=0;exitDy=0;" parent="1" source="GmcOGzXTu3tJZgcI8re--56" edge="1">
          <mxGeometry width="50" height="50" relative="1" as="geometry">
            <mxPoint x="1530" y="1090" as="sourcePoint" />
            <mxPoint x="1560" y="1020" as="targetPoint" />
          </mxGeometry>
        </mxCell>
        <mxCell id="GmcOGzXTu3tJZgcI8re--62" value="Preparation" style="rounded=1;whiteSpace=wrap;html=1;" parent="1" vertex="1">
          <mxGeometry x="1560" y="990" width="330" height="60" as="geometry" />
        </mxCell>
        <mxCell id="GmcOGzXTu3tJZgcI8re--63" value="" style="endArrow=classic;html=1;rounded=0;exitX=1;exitY=0.5;exitDx=0;exitDy=0;" parent="1" source="GmcOGzXTu3tJZgcI8re--62" edge="1">
          <mxGeometry width="50" height="50" relative="1" as="geometry">
            <mxPoint x="1940" y="980" as="sourcePoint" />
            <mxPoint x="2000" y="880" as="targetPoint" />
            <Array as="points">
              <mxPoint x="1920" y="1020" />
              <mxPoint x="1920" y="880" />
            </Array>
          </mxGeometry>
        </mxCell>
        <mxCell id="GmcOGzXTu3tJZgcI8re--64" value="" style="endArrow=classic;html=1;rounded=0;exitX=1;exitY=0.5;exitDx=0;exitDy=0;" parent="1" source="GmcOGzXTu3tJZgcI8re--62" edge="1">
          <mxGeometry width="50" height="50" relative="1" as="geometry">
            <mxPoint x="1930" y="1060" as="sourcePoint" />
            <mxPoint x="2000" y="1060" as="targetPoint" />
            <Array as="points">
              <mxPoint x="1960" y="1020" />
              <mxPoint x="1960" y="1060" />
            </Array>
          </mxGeometry>
        </mxCell>
        <mxCell id="GmcOGzXTu3tJZgcI8re--65" value="" style="endArrow=classic;html=1;rounded=0;exitX=1;exitY=0.5;exitDx=0;exitDy=0;" parent="1" source="GmcOGzXTu3tJZgcI8re--62" edge="1">
          <mxGeometry width="50" height="50" relative="1" as="geometry">
            <mxPoint x="1940" y="1080" as="sourcePoint" />
            <mxPoint x="2000" y="1130" as="targetPoint" />
            <Array as="points">
              <mxPoint x="1920" y="1020" />
              <mxPoint x="1920" y="1130" />
            </Array>
          </mxGeometry>
        </mxCell>
        <mxCell id="GmcOGzXTu3tJZgcI8re--66" value="" style="endArrow=classic;html=1;rounded=0;exitX=1;exitY=0.5;exitDx=0;exitDy=0;" parent="1" source="GmcOGzXTu3tJZgcI8re--62" edge="1">
          <mxGeometry width="50" height="50" relative="1" as="geometry">
            <mxPoint x="1980" y="1090" as="sourcePoint" />
            <mxPoint x="2000" y="960" as="targetPoint" />
            <Array as="points">
              <mxPoint x="1960" y="1020" />
              <mxPoint x="1960" y="960" />
            </Array>
          </mxGeometry>
        </mxCell>
        <mxCell id="GmcOGzXTu3tJZgcI8re--67" value="Data_modulate_3x3" style="rounded=1;whiteSpace=wrap;html=1;" parent="1" vertex="1">
          <mxGeometry x="2000" y="855" width="330" height="60" as="geometry" />
        </mxCell>
        <mxCell id="GmcOGzXTu3tJZgcI8re--68" value="Data_modulate_5x5" style="rounded=1;whiteSpace=wrap;html=1;" parent="1" vertex="1">
          <mxGeometry x="2000" y="930" width="330" height="60" as="geometry" />
        </mxCell>
        <mxCell id="GmcOGzXTu3tJZgcI8re--69" value="Data_modulate_7x7" style="rounded=1;whiteSpace=wrap;html=1;" parent="1" vertex="1">
          <mxGeometry x="2000" y="1030" width="330" height="60" as="geometry" />
        </mxCell>
        <mxCell id="GmcOGzXTu3tJZgcI8re--70" value="Data_modulate_9x9" style="rounded=1;whiteSpace=wrap;html=1;" parent="1" vertex="1">
          <mxGeometry x="2000" y="1100" width="330" height="60" as="geometry" />
        </mxCell>
        <mxCell id="GmcOGzXTu3tJZgcI8re--76" value="" style="endArrow=classic;html=1;rounded=0;exitX=1;exitY=0.5;exitDx=0;exitDy=0;" parent="1" source="GmcOGzXTu3tJZgcI8re--67" edge="1">
          <mxGeometry width="50" height="50" relative="1" as="geometry">
            <mxPoint x="2390" y="980" as="sourcePoint" />
            <mxPoint x="2400" y="885" as="targetPoint" />
          </mxGeometry>
        </mxCell>
        <mxCell id="GmcOGzXTu3tJZgcI8re--77" value="MRELBP_CI_R2" style="rounded=1;whiteSpace=wrap;html=1;" parent="1" vertex="1">
          <mxGeometry x="2400" y="855" width="330" height="60" as="geometry" />
        </mxCell>
        <mxCell id="GmcOGzXTu3tJZgcI8re--78" value="" style="endArrow=classic;html=1;rounded=0;exitX=1;exitY=0.5;exitDx=0;exitDy=0;" parent="1" edge="1">
          <mxGeometry width="50" height="50" relative="1" as="geometry">
            <mxPoint x="2330" y="960" as="sourcePoint" />
            <mxPoint x="2400" y="960" as="targetPoint" />
          </mxGeometry>
        </mxCell>
        <mxCell id="GmcOGzXTu3tJZgcI8re--79" value="MRELBP_CI_R4" style="rounded=1;whiteSpace=wrap;html=1;" parent="1" vertex="1">
          <mxGeometry x="2400" y="930" width="330" height="60" as="geometry" />
        </mxCell>
        <mxCell id="GmcOGzXTu3tJZgcI8re--80" value="" style="endArrow=classic;html=1;rounded=0;exitX=1;exitY=0.5;exitDx=0;exitDy=0;" parent="1" edge="1">
          <mxGeometry width="50" height="50" relative="1" as="geometry">
            <mxPoint x="2330" y="1060" as="sourcePoint" />
            <mxPoint x="2400" y="1060" as="targetPoint" />
          </mxGeometry>
        </mxCell>
        <mxCell id="GmcOGzXTu3tJZgcI8re--81" value="MRELBP_CI_R6" style="rounded=1;whiteSpace=wrap;html=1;" parent="1" vertex="1">
          <mxGeometry x="2400" y="1030" width="330" height="60" as="geometry" />
        </mxCell>
        <mxCell id="GmcOGzXTu3tJZgcI8re--82" value="" style="endArrow=classic;html=1;rounded=0;exitX=1;exitY=0.5;exitDx=0;exitDy=0;" parent="1" edge="1">
          <mxGeometry width="50" height="50" relative="1" as="geometry">
            <mxPoint x="2330" y="1130" as="sourcePoint" />
            <mxPoint x="2400" y="1130" as="targetPoint" />
          </mxGeometry>
        </mxCell>
        <mxCell id="GmcOGzXTu3tJZgcI8re--83" value="MRELBP_CI_R8" style="rounded=1;whiteSpace=wrap;html=1;" parent="1" vertex="1">
          <mxGeometry x="2400" y="1100" width="330" height="60" as="geometry" />
        </mxCell>
        <mxCell id="GmcOGzXTu3tJZgcI8re--84" value="median_o" style="text;html=1;align=center;verticalAlign=middle;whiteSpace=wrap;rounded=0;" parent="1" vertex="1">
          <mxGeometry x="1470" y="990" width="60" height="30" as="geometry" />
        </mxCell>
        <mxCell id="juTCT_LNaGas9HXw3iLE-1" value="" style="endArrow=classic;html=1;rounded=0;exitX=0.996;exitY=0.417;exitDx=0;exitDy=0;exitPerimeter=0;" edge="1" parent="1" source="GmcOGzXTu3tJZgcI8re--77">
          <mxGeometry width="50" height="50" relative="1" as="geometry">
            <mxPoint x="2860" y="890" as="sourcePoint" />
            <mxPoint x="2880" y="880" as="targetPoint" />
          </mxGeometry>
        </mxCell>
        <mxCell id="juTCT_LNaGas9HXw3iLE-10" value="Counter_0" style="rounded=0;whiteSpace=wrap;html=1;" vertex="1" parent="1">
          <mxGeometry x="2980" y="770" width="60" height="70" as="geometry" />
        </mxCell>
        <mxCell id="juTCT_LNaGas9HXw3iLE-11" value="Counter_1" style="rounded=0;whiteSpace=wrap;html=1;" vertex="1" parent="1">
          <mxGeometry x="2980" y="880" width="60" height="60" as="geometry" />
        </mxCell>
        <mxCell id="juTCT_LNaGas9HXw3iLE-19" value="demux" style="rounded=0;whiteSpace=wrap;html=1;" vertex="1" parent="1">
          <mxGeometry x="2900" y="845" width="50" height="60" as="geometry" />
        </mxCell>
        <mxCell id="juTCT_LNaGas9HXw3iLE-20" value="" style="endArrow=classic;html=1;rounded=0;entryX=0.5;entryY=0;entryDx=0;entryDy=0;" edge="1" parent="1" target="juTCT_LNaGas9HXw3iLE-19">
          <mxGeometry width="50" height="50" relative="1" as="geometry">
            <mxPoint x="2925" y="800" as="sourcePoint" />
            <mxPoint x="2950" y="760" as="targetPoint" />
          </mxGeometry>
        </mxCell>
        <mxCell id="juTCT_LNaGas9HXw3iLE-21" value="ci_o" style="text;html=1;align=center;verticalAlign=middle;whiteSpace=wrap;rounded=0;" vertex="1" parent="1">
          <mxGeometry x="2890" y="770" width="60" height="30" as="geometry" />
        </mxCell>
        <mxCell id="juTCT_LNaGas9HXw3iLE-22" value="" style="endArrow=classic;html=1;rounded=0;exitX=1.006;exitY=0.282;exitDx=0;exitDy=0;exitPerimeter=0;entryX=0.001;entryY=0.43;entryDx=0;entryDy=0;entryPerimeter=0;" edge="1" parent="1" source="juTCT_LNaGas9HXw3iLE-19" target="juTCT_LNaGas9HXw3iLE-10">
          <mxGeometry width="50" height="50" relative="1" as="geometry">
            <mxPoint x="2960" y="880" as="sourcePoint" />
            <mxPoint x="3010" y="830" as="targetPoint" />
            <Array as="points">
              <mxPoint x="2960" y="862" />
              <mxPoint x="2960" y="800" />
            </Array>
          </mxGeometry>
        </mxCell>
        <mxCell id="juTCT_LNaGas9HXw3iLE-24" value="" style="endArrow=classic;html=1;rounded=0;entryX=0;entryY=0.5;entryDx=0;entryDy=0;exitX=1;exitY=0.5;exitDx=0;exitDy=0;" edge="1" parent="1" source="juTCT_LNaGas9HXw3iLE-19" target="juTCT_LNaGas9HXw3iLE-11">
          <mxGeometry width="50" height="50" relative="1" as="geometry">
            <mxPoint x="2970" y="900" as="sourcePoint" />
            <mxPoint x="3020" y="850" as="targetPoint" />
            <Array as="points">
              <mxPoint x="2960" y="875" />
              <mxPoint x="2960" y="910" />
            </Array>
          </mxGeometry>
        </mxCell>
      </root>
    </mxGraphModel>
  </diagram>
</mxfile>
